<svg width="50" height="50" viewBox="0 0 50 50" fill="none" xmlns="http://www.w3.org/2000/svg">
<rect width="50" height="50" rx="16" fill="#F0B90B"/>
<path d="M15.748 25.355L15.763 30.908L20.482 33.683V36.935L13.003 32.549V23.732L15.748 25.355ZM15.748 19.802V23.0375L13 21.413V18.176L15.748 16.5515L18.5095 18.176L15.7495 19.802H15.748ZM22.453 18.176L25.201 16.5515L27.961 18.176L25.201 19.802L22.453 18.176Z" fill="white"/>
<path d="M17.734 29.7575V26.5055L20.482 28.1315V31.367L17.734 29.7575ZM22.453 34.8485L25.201 36.4745L27.961 34.8485V38.084L25.201 39.71L22.453 38.084V34.8485ZM31.903 18.176L34.651 16.5515L37.411 18.176V21.413L34.651 23.0375V19.802L31.903 18.176ZM34.651 30.908L34.666 25.355L37.4125 23.729V32.5475L29.9335 36.9335V33.683L34.651 30.908Z" fill="white"/>
<path d="M32.68 29.7575L29.932 31.367V28.1315L32.68 26.5055V29.7575Z" fill="white"/>
<path d="M32.68 20.9525L32.695 24.2045L27.9625 26.9795V32.5475L25.216 34.157L22.468 32.5475V26.981L17.7355 24.2045V20.9525L20.4955 19.328L25.198 22.118L29.9305 19.328L32.6905 20.9525H32.68ZM17.734 15.4025L25.1995 11L32.68 15.4025L29.932 17.027L25.201 14.237L20.482 17.027L17.734 15.4025Z" fill="white"/>
</svg>
