<svg width="50" height="50" viewBox="0 0 50 50" fill="none" xmlns="http://www.w3.org/2000/svg">
<rect width="50" height="50" rx="16" fill="#8247E5"/>
<g clip-path="url(#clip0_47_2638)">
<path d="M31.7027 20.9302C31.2271 20.6584 30.6156 20.6584 30.0721 20.9302L26.2675 23.1722L23.6857 24.5989L19.949 26.841C19.4734 27.1127 18.862 27.1127 18.3184 26.841L15.397 25.0745C14.9214 24.8028 14.5817 24.2592 14.5817 23.6478V20.2508C14.5817 19.7072 14.8535 19.1637 15.397 18.824L18.3184 17.1255C18.794 16.8537 19.4055 16.8537 19.949 17.1255L22.8704 18.892C23.346 19.1637 23.6857 19.7072 23.6857 20.3187V22.5607L26.2675 21.066V18.7561C26.2675 18.2126 25.9957 17.669 25.4522 17.3293L20.017 14.1361C19.5414 13.8644 18.9299 13.8644 18.3864 14.1361L12.8153 17.3973C12.2718 17.669 12 18.2126 12 18.7561V25.1425C12 25.686 12.2718 26.2295 12.8153 26.5692L18.3184 29.7624C18.794 30.0342 19.4055 30.0342 19.949 29.7624L23.6857 27.5883L26.2675 26.0936L30.0042 23.9195C30.4798 23.6478 31.0912 23.6478 31.6347 23.9195L34.5562 25.618C35.0318 25.8898 35.3715 26.4333 35.3715 27.0448V30.4418C35.3715 30.9853 35.0997 31.5289 34.5562 31.8686L31.7027 33.5671C31.2271 33.8388 30.6156 33.8388 30.0721 33.5671L27.1507 31.8686C26.6751 31.5968 26.3354 31.0533 26.3354 30.4418V28.2677L23.7537 29.7624V32.0044C23.7537 32.548 24.0254 33.0915 24.569 33.4312L30.0721 36.6244C30.5477 36.8961 31.1592 36.8961 31.7027 36.6244L37.2058 33.4312C37.6814 33.1594 38.0211 32.6159 38.0211 32.0044V25.5501C38.0211 25.0066 37.7494 24.4631 37.2058 24.1234L31.7027 20.9302Z" fill="white"/>
</g>
<defs>
<clipPath id="clip0_47_2638">
<rect width="26.0891" height="22.76" fill="white" transform="translate(12 14)"/>
</clipPath>
</defs>
</svg>
